<svg width="322" height="58" viewBox="0 0 322 58" fill="none" xmlns="http://www.w3.org/2000/svg">
<g clip-path="url(#clip0)">
<path d="M0 38.8505L10.47 37.8305C11.1 41.3405 12.38 43.9205 14.3 45.5705C16.23 47.2205 18.82 48.0405 22.1 48.0405C25.57 48.0405 28.18 47.3105 29.94 45.8405C31.69 44.3705 32.57 42.6605 32.57 40.7005C32.57 39.4405 32.2 38.3705 31.46 37.4805C30.72 36.6005 29.43 35.8305 27.59 35.1705C26.33 34.7305 23.46 33.9605 18.98 32.8405C13.21 31.4105 9.16 29.6505 6.84 27.5705C3.57 24.6405 1.92999 21.0605 1.92999 16.8505C1.92999 14.1405 2.69999 11.6005 4.23999 9.23047C5.77999 6.87047 7.99998 5.07047 10.89 3.83047C13.79 2.59047 17.28 1.98047 21.38 1.98047C28.07 1.98047 33.1 3.45049 36.48 6.38049C39.86 9.31049 41.63 13.2305 41.8 18.1205L31.04 18.5905C30.58 15.8505 29.59 13.8805 28.08 12.6805C26.56 11.4805 24.29 10.8805 21.26 10.8805C18.13 10.8805 15.69 11.5205 13.92 12.8105C12.78 13.6305 12.21 14.7405 12.21 16.1205C12.21 17.3805 12.74 18.4605 13.81 19.3605C15.17 20.5005 18.46 21.6905 23.7 22.9205C28.93 24.1605 32.81 25.4305 35.31 26.7605C37.82 28.0805 39.78 29.8905 41.2 32.1805C42.62 34.4705 43.33 37.3005 43.33 40.6705C43.33 43.7205 42.48 46.5805 40.79 49.2505C39.09 51.9205 36.69 53.9005 33.59 55.1905C30.49 56.4805 26.62 57.1305 21.99 57.1305C15.25 57.1305 10.08 55.5705 6.47 52.4605C2.86 49.3605 0.7 44.8205 0 38.8505Z" fill="#404041"/>
<path d="M51.6797 56.2001V2.91016H62.4397V23.8901H83.5297V2.91016H94.2897V56.2001H83.5297V32.9001H62.4397V56.2001H51.6797Z" fill="#404041"/>
<path d="M104.328 56.2001V2.91016H115.088V56.2001H104.328Z" fill="#404041"/>
<path d="M124.602 56.2001V2.91016H141.872C148.412 2.91016 152.682 3.18014 154.662 3.71014C157.712 4.51014 160.272 6.25015 162.332 8.93015C164.392 11.6101 165.422 15.0702 165.422 19.3102C165.422 22.5802 164.832 25.3302 163.642 27.5602C162.452 29.7901 160.942 31.5401 159.122 32.8102C157.292 34.0802 155.432 34.9202 153.542 35.3401C150.972 35.8501 147.252 36.1002 142.382 36.1002H135.362V56.2001H124.602ZM135.362 11.9201V27.0402H141.252C145.492 27.0402 148.332 26.7601 149.762 26.2001C151.192 25.6401 152.312 24.7701 153.122 23.5801C153.932 22.3901 154.342 21.0101 154.342 19.4301C154.342 17.4901 153.772 15.8902 152.642 14.6302C151.502 13.3702 150.062 12.5801 148.312 12.2701C147.032 12.0301 144.452 11.9102 140.572 11.9102H135.362V11.9201Z" fill="#404041"/>
<path d="M173.512 56.2001V2.91016H190.782C197.322 2.91016 201.592 3.18014 203.582 3.71014C206.632 4.51014 209.192 6.25015 211.252 8.93015C213.312 11.6101 214.342 15.0702 214.342 19.3102C214.342 22.5802 213.742 25.3302 212.562 27.5602C211.372 29.7901 209.862 31.5401 208.032 32.8102C206.202 34.0802 204.342 34.9202 202.452 35.3401C199.882 35.8501 196.162 36.1002 191.292 36.1002H184.282V56.2001H173.512ZM184.272 11.9201V27.0402H190.162C194.402 27.0402 197.232 26.7601 198.672 26.2001C200.102 25.6401 201.222 24.7701 202.032 23.5801C202.842 22.3901 203.252 21.0101 203.252 19.4301C203.252 17.4901 202.682 15.8902 201.542 14.6302C200.402 13.3702 198.962 12.5801 197.212 12.2701C195.922 12.0301 193.342 11.9102 189.472 11.9102H184.272V11.9201Z" fill="#404041"/>
<path d="M280.898 56.2001V2.91016H298.168C304.708 2.91016 308.978 3.18014 310.958 3.71014C314.008 4.51014 316.568 6.25015 318.628 8.93015C320.688 11.6101 321.718 15.0702 321.718 19.3102C321.718 22.5802 321.128 25.3302 319.938 27.5602C318.748 29.7901 317.248 31.5401 315.418 32.8102C313.588 34.0802 311.728 34.9202 309.838 35.3401C307.268 35.8501 303.548 36.1002 298.678 36.1002H291.658V56.2001H280.898ZM291.658 11.9201V27.0402H297.548C301.788 27.0402 304.628 26.7601 306.058 26.2001C307.488 25.6401 308.608 24.7701 309.418 23.5801C310.228 22.3901 310.638 21.0101 310.638 19.4301C310.638 17.4901 310.068 15.8902 308.928 14.6302C307.788 13.3702 306.348 12.5801 304.608 12.2701C303.318 12.0301 300.738 11.9102 296.858 11.9102H291.658V11.9201Z" fill="#404041"/>
<path d="M267.132 0H218.132C216.652 0 215.322 0.599998 214.352 1.56L222.902 10.11V14.86V43.55C222.902 46.5 225.292 48.89 228.242 48.89H256.502H261.652L270.912 58.16C271.852 57.22 272.442 55.93 272.482 54.51V5.22C272.412 2.32 270.042 0 267.132 0ZM254.252 41.44H233.202C231.952 41.44 230.932 40.44 230.902 39.2V18.02L230.972 15.84L235.562 20.43H237.772H249.912C251.182 20.43 252.202 21.46 252.202 22.72V35.05V37.09L256.532 41.42L254.252 41.44Z" fill="#009EFF"/>
<path d="M247.593 24.0195H239.673C239.433 24.0195 239.222 24.1195 239.062 24.2695L240.443 25.6495V26.4195V31.0595C240.443 31.5395 240.833 31.9195 241.303 31.9195H245.873H246.703L248.203 33.4195C248.353 33.2695 248.453 33.0595 248.463 32.8295V24.8595C248.453 24.3995 248.073 24.0195 247.593 24.0195Z" fill="#009EFF"/>
</g>
<defs>
<clipPath id="clip0">
<rect width="322" height="58" fill="white"/>
</clipPath>
</defs>
</svg>
